<?xml version="1.0" encoding="UTF-8" standalone="no"?>
<!-- Created with Inkscape (http://www.inkscape.org/) -->

<svg
   version="1.1"
   id="svg164"
   width="613.01599"
   height="83.446655"
   viewBox="0 0 613.01599 83.446655"
   sodipodi:docname="d55psg-logo-name.svg"
   inkscape:version="1.2.2 (732a01da63, 2022-12-09, custom)"
   xmlns:inkscape="http://www.inkscape.org/namespaces/inkscape"
   xmlns:sodipodi="http://sodipodi.sourceforge.net/DTD/sodipodi-0.dtd"
   xmlns="http://www.w3.org/2000/svg"
   xmlns:svg="http://www.w3.org/2000/svg">
  <defs
     id="defs168">
    <clipPath
       clipPathUnits="userSpaceOnUse"
       id="clipPath182">
      <path
         d="M 0,576 H 768 V 0 H 0 Z"
         id="path180" />
    </clipPath>
  </defs>
  <sodipodi:namedview
     id="namedview166"
     pagecolor="#505050"
     bordercolor="#ffffff"
     borderopacity="1"
     inkscape:showpageshadow="0"
     inkscape:pageopacity="0"
     inkscape:pagecheckerboard="1"
     inkscape:deskcolor="#505050"
     showgrid="false"
     inkscape:lockguides="true"
     inkscape:zoom="0.71746973"
     inkscape:cx="295.48285"
     inkscape:cy="-34.147782"
     inkscape:window-width="1360"
     inkscape:window-height="737"
     inkscape:window-x="0"
     inkscape:window-y="0"
     inkscape:window-maximized="1"
     inkscape:current-layer="g380" />
  <g
     id="g172"
     inkscape:groupmode="layer"
     inkscape:label="Page 1"
     transform="matrix(1.3333333,0,0,-1.3333333,-293.492,428.30399)">
    <path
       d="M 0,96.000002 H 900.00002 V 576 H 0 Z"
       style="display:none;fill:#fcfcfc;fill-opacity:1;fill-rule:nonzero;stroke:none;stroke-width:0.988212"
       id="path174" />
    <g
       id="g176"
       inkscape:export-filename="../d95ef239/d55psg-logo-slogan.svg"
       inkscape:export-xdpi="96"
       inkscape:export-ydpi="96"
       transform="translate(65.998011,47.998003)">
      <g
         id="g178"
         clip-path="url(#clipPath182)">
        <g
           id="g380"
           transform="translate(600.309,183.922)" />
        <g
           id="g384"
           transform="translate(211.566,270.074)"
           inkscape:export-filename="../a141f0d6/d55psg-logo-name.svg"
           inkscape:export-xdpi="96"
           inkscape:export-ydpi="96">
          <path
             d="m 0,0 c -3.246,1.141 -6.523,1.711 -9.828,1.711 h -47.617 v -59.156 h 47.617 c 3.305,0 6.582,0.57 9.828,1.715 5.895,2.043 10.645,5.621 14.25,10.73 3.668,5.172 5.5,10.883 5.5,17.133 0,6.254 -1.832,11.938 -5.5,17.047 C 10.641,-5.652 5.895,-2.043 0,0 m -1.621,-51.043 c -2.527,-0.902 -5.261,-1.351 -8.207,-1.351 h -42.57 V -3.34 h 42.566 c 2.946,0 5.68,-0.449 8.204,-1.351 4.871,-1.742 8.808,-4.75 11.816,-9.016 3.004,-4.269 4.508,-8.988 4.508,-14.16 0,-5.172 -1.504,-9.891 -4.508,-14.16 -3.008,-4.266 -6.945,-7.274 -11.816,-9.016 z"
             style="fill:#888888;fill-opacity:1;fill-rule:nonzero;stroke:none"
             id="path386" />
        </g>
        <g
           id="g388"
           transform="translate(287.648,247.527)">
          <path
             d="M 0,0 C -5.71,3.789 -12.566,5.684 -20.562,5.684 H -39.05 V 18.758 H 6.493 c 1.683,0 2.523,0.813 2.523,2.438 0,1.683 -0.84,2.523 -2.523,2.523 h -50.59 V 0.723 h 23.535 c 6.734,0 12.504,-1.531 17.316,-4.598 4.868,-3.066 7.305,-6.734 7.305,-11.004 0,-4.269 -2.406,-7.933 -7.215,-11 -4.812,-3.007 -10.613,-4.511 -17.406,-4.511 -6.793,0 -12.594,1.504 -17.402,4.511 -4.75,3.067 -7.125,6.735 -7.125,11 0,1.684 -0.844,2.528 -2.528,2.528 -1.621,0 -2.433,-0.844 -2.433,-2.528 0,-5.832 3.007,-10.761 9.019,-14.789 5.649,-3.785 12.473,-5.679 20.469,-5.679 8.055,0 14.91,1.894 20.562,5.679 6.012,4.028 9.016,8.957 9.016,14.789 0,5.895 -3.004,10.852 -9.016,14.883 z"
             style="fill:#888888;fill-opacity:1;fill-rule:nonzero;stroke:none"
             id="path390" />
        </g>
        <g
           id="g392"
           transform="translate(354.051,247.527)">
          <path
             d="M 0,0 C -5.711,3.789 -12.563,5.684 -20.559,5.684 H -39.047 V 18.758 H 6.496 c 1.683,0 2.523,0.813 2.523,2.438 0,1.683 -0.84,2.523 -2.523,2.523 H -44.102 V 0.723 h 23.539 c 6.735,0 12.504,-1.531 17.313,-4.598 4.871,-3.066 7.304,-6.734 7.304,-11.004 0,-4.269 -2.402,-7.933 -7.214,-11 -4.809,-3.007 -10.61,-4.511 -17.403,-4.511 -6.793,0 -12.593,1.504 -17.406,4.511 -4.75,3.067 -7.125,6.735 -7.125,11 0,1.684 -0.84,2.528 -2.523,2.528 -1.622,0 -2.434,-0.844 -2.434,-2.528 0,-5.832 3.004,-10.761 9.016,-14.789 5.652,-3.785 12.476,-5.679 20.472,-5.679 8.055,0 14.91,1.894 20.559,5.679 6.015,4.028 9.019,8.957 9.019,14.789 0,5.895 -3.004,10.852 -9.019,14.883 z"
             style="fill:#888888;fill-opacity:1;fill-rule:nonzero;stroke:none"
             id="path394" />
        </g>
        <g
           id="g396"
           transform="translate(427.305,271.785)">
          <path
             d="m 0,0 h -56.633 v -56.637 c 0,-1.679 0.84,-2.523 2.523,-2.523 1.684,0 2.528,0.844 2.528,2.523 v 15.512 H 0 c 5.711,0 10.55,2.016 14.519,6.043 4.028,4.027 6.043,8.867 6.043,14.52 0,5.711 -2.015,10.55 -6.043,14.519 C 10.55,-2.015 5.711,-0.004 0,-0.004 Z M 0,-36.074 H -51.586 V -5.047 H 0 c 4.265,0 7.902,-1.531 10.91,-4.597 3.066,-3.008 4.597,-6.645 4.597,-10.914 0,-4.266 -1.531,-7.934 -4.597,-11 C 7.902,-34.566 4.265,-36.066 0,-36.066 Z"
             style="fill:#888888;fill-opacity:1;fill-rule:nonzero;stroke:none"
             id="path398" />
        </g>
        <g
           id="g400"
           transform="translate(455.574,233.188)">
          <path
             d="m 0,0 c 0,-6.192 3.727,-11.422 11.18,-15.692 7.457,-4.207 16.594,-6.312 27.414,-6.312 10.762,0 19.539,1.171 26.336,3.519 8.176,2.824 12.262,6.973 12.262,12.442 0,5.714 -3.485,9.832 -10.461,12.355 -3.965,1.445 -11.692,2.945 -23.176,4.512 l -8.926,1.261 c -10.883,1.563 -18.098,2.946 -21.644,4.149 -5.293,1.801 -7.938,4.418 -7.938,7.844 0,3.246 3.129,5.894 9.379,7.937 6.254,2.043 14.309,3.067 24.168,3.067 9.078,0 16.926,-1.684 23.539,-5.051 6.672,-3.367 10.008,-7.364 10.008,-11.996 0,-1.684 0.844,-2.524 2.527,-2.524 1.684,0 2.524,0.84 2.524,2.524 0,6.195 -3.727,11.394 -11.18,15.601 -7.457,4.27 -16.594,6.406 -27.418,6.406 -10.762,0 -19.539,-1.175 -26.332,-3.519 C 4.086,33.699 -0.004,29.55 -0.004,24.078 c 0,-5.711 3.641,-9.86 10.914,-12.446 3.489,-1.199 11.18,-2.703 23.086,-4.508 L 38.235,6.496 42.832,5.863 C 53.836,4.359 61.141,2.976 64.746,1.714 c 4.93,-1.683 7.395,-4.269 7.395,-7.754 0,-3.25 -3.125,-5.894 -9.379,-7.937 -6.25,-2.043 -14.309,-3.066 -24.168,-3.066 -9.078,0 -16.953,1.683 -23.625,5.05 C 8.356,-8.626 5.047,-4.629 5.047,0 5.047,1.683 4.207,2.527 2.524,2.527 0.84,2.527 -0.004,1.683 -0.004,0 Z"
             style="fill:#888888;fill-opacity:1;fill-rule:nonzero;stroke:none"
             id="path402" />
        </g>
        <g
           id="g404"
           transform="translate(579.887,235.176)">
          <path
             d="m 0,0 c -1.684,0 -2.528,-0.84 -2.528,-2.524 0,-1.625 0.844,-2.437 2.528,-2.437 h 29.035 v -3.067 c -3.305,-3.605 -7.516,-6.429 -12.625,-8.476 -5.109,-1.984 -10.582,-2.977 -16.414,-2.977 -9.68,0 -17.945,2.528 -24.797,7.578 -6.856,5.11 -10.281,11.243 -10.281,18.395 0,7.215 3.425,13.348 10.281,18.398 6.852,5.11 15.117,7.664 24.797,7.664 5.953,0 11.515,-1.05 16.683,-3.156 5.231,-2.105 9.469,-5.019 12.715,-8.746 0.485,-0.601 1.114,-0.902 1.895,-0.902 1.683,0 2.527,0.84 2.527,2.523 0,0.602 -0.211,1.145 -0.633,1.625 -3.789,4.266 -8.597,7.606 -14.429,10.008 -5.832,2.465 -12.082,3.699 -18.758,3.699 -10.942,0 -20.321,-2.976 -28.137,-8.929 -7.992,-6.071 -11.992,-13.465 -11.992,-22.184 0,-8.719 4,-16.113 11.992,-22.184 7.758,-5.89 17.137,-8.839 28.137,-8.839 11.484,0 21.164,3.218 29.039,9.652 v -5.684 c 0,-1.621 0.844,-2.433 2.523,-2.433 1.625,0 2.438,0.812 2.438,2.433 v 20.559 z"
             style="fill:#888888;fill-opacity:1;fill-rule:nonzero;stroke:none"
             id="path406" />
        </g>
      </g>
    </g>
  </g>
</svg>
