<?xml version="1.0" encoding="UTF-8" standalone="no"?>
<!-- Created with Inkscape (http://www.inkscape.org/) -->

<svg
   version="1.1"
   id="svg164"
   width="163.74933"
   height="153.20468"
   viewBox="0 0 163.74933 153.20468"
   sodipodi:docname="D55PSG logo.ai"
   xmlns:inkscape="http://www.inkscape.org/namespaces/inkscape"
   xmlns:sodipodi="http://sodipodi.sourceforge.net/DTD/sodipodi-0.dtd"
   xmlns="http://www.w3.org/2000/svg"
   xmlns:svg="http://www.w3.org/2000/svg">
  <defs
     id="defs168">
    <clipPath
       clipPathUnits="userSpaceOnUse"
       id="clipPath182">
      <path
         d="M 0,576 H 768 V 0 H 0 Z"
         id="path180" />
    </clipPath>
  </defs>
  <sodipodi:namedview
     id="namedview166"
     pagecolor="#505050"
     bordercolor="#ffffff"
     borderopacity="1"
     inkscape:showpageshadow="0"
     inkscape:pageopacity="0"
     inkscape:pagecheckerboard="1"
     inkscape:deskcolor="#505050"
     showgrid="false" />
  <g
     id="g172"
     inkscape:groupmode="layer"
     inkscape:label="Page 1"
     transform="matrix(1.3333333,0,0,-1.3333333,-502.57349,616.00867)">
    <path
       d="M 0,96.000002 H 900.00002 V 576 H 0 Z"
       style="display:none;fill:#fcfcfc;fill-opacity:1;fill-rule:nonzero;stroke:none;stroke-width:0.988212"
       id="path174" />
    <g
       id="g176"
       inkscape:export-filename="../d95ef239/d55psg-logo-slogan.svg"
       inkscape:export-xdpi="96"
       inkscape:export-ydpi="96"
       transform="translate(65.998011,47.998003)">
      <g
         id="g178"
         clip-path="url(#clipPath182)">
        <g
           id="g184"
           transform="translate(155.363,191.113)">
          <path
             d="m 0,0 c -0.129,0 -0.191,-0.062 -0.191,-0.191 v -22.27 c 0,-0.125 0.062,-0.191 0.191,-0.191 h 0.664 c 0.129,0 0.192,0.066 0.192,0.191 v 8.618 h 6.176 c 4.941,0 7.73,2.535 7.73,6.906 C 14.762,-2.629 12.008,0 7.032,0 Z M 0.856,-12.828 V -0.98 h 6.082 c 4.465,0 6.777,-2.156 6.777,-5.957 0,-3.801 -2.312,-5.891 -6.777,-5.891 z"
             style="fill:#8e8686;fill-opacity:1;fill-rule:nonzero;stroke:none"
             id="path186" />
        </g>
        <g
           id="g188"
           transform="translate(155.363,191.113)">
          <path
             d="m 0,0 c -0.129,0 -0.191,-0.062 -0.191,-0.191 v -22.27 c 0,-0.125 0.062,-0.191 0.191,-0.191 h 0.664 c 0.129,0 0.192,0.066 0.192,0.191 v 8.618 h 6.176 c 4.941,0 7.73,2.535 7.73,6.906 C 14.762,-2.629 12.008,0 7.032,0 Z M 0.856,-12.828 V -0.98 h 6.082 c 4.465,0 6.777,-2.156 6.777,-5.957 0,-3.801 -2.312,-5.891 -6.777,-5.891 z"
             style="fill:none;stroke:#8e8686;stroke-width:0.891;stroke-linecap:butt;stroke-linejoin:miter;stroke-miterlimit:2;stroke-dasharray:none;stroke-opacity:1"
             id="path190" />
        </g>
        <g
           id="g192"
           transform="translate(178.363,168.465)">
          <path
             d="m 0,0 c 0.129,0 0.192,0.062 0.192,0.187 v 14.637 c 1.363,0.539 3.011,0.824 4.531,0.824 1.043,0 2.152,-0.093 3.137,-0.254 0.125,-0.031 0.187,0.032 0.187,0.161 v 0.539 c 0,0.125 -0.031,0.187 -0.187,0.218 -1.016,0.161 -2.125,0.285 -3.2,0.285 -1.808,0 -3.804,-0.378 -5.324,-1.105 C -0.758,15.457 -0.82,15.363 -0.82,15.269 V 0.187 C -0.82,0.062 -0.726,0 -0.633,0 Z"
             style="fill:#8e8686;fill-opacity:1;fill-rule:nonzero;stroke:none"
             id="path194" />
        </g>
        <g
           id="g196"
           transform="translate(178.363,168.465)">
          <path
             d="m 0,0 c 0.129,0 0.192,0.062 0.192,0.187 v 14.637 c 1.363,0.539 3.011,0.824 4.531,0.824 1.043,0 2.152,-0.093 3.137,-0.254 0.125,-0.031 0.187,0.032 0.187,0.161 v 0.539 c 0,0.125 -0.031,0.187 -0.187,0.218 -1.016,0.161 -2.125,0.285 -3.2,0.285 -1.808,0 -3.804,-0.378 -5.324,-1.105 C -0.758,15.457 -0.82,15.363 -0.82,15.269 V 0.187 C -0.82,0.062 -0.726,0 -0.633,0 Z"
             style="fill:none;stroke:#8e8686;stroke-width:0.891;stroke-linecap:butt;stroke-linejoin:miter;stroke-miterlimit:2;stroke-dasharray:none;stroke-opacity:1"
             id="path198" />
        </g>
        <g
           id="g200"
           transform="translate(204.703,174.102)">
          <path
             d="m 0,0 v 5.007 c 0,3.325 -2.277,5.957 -6.586,5.957 -4.277,0 -6.59,-2.632 -6.59,-5.957 V 0 c 0,-3.356 2.313,-5.954 6.59,-5.954 C -2.277,-5.954 0,-3.356 0,0 m -12.164,0 v 5.007 c 0,2.789 1.871,5.004 5.578,5.004 3.738,0 5.574,-2.215 5.574,-5.004 V 0 c 0,-2.817 -1.836,-5.036 -5.574,-5.036 -3.707,0 -5.578,2.219 -5.578,5.036"
             style="fill:#8e8686;fill-opacity:1;fill-rule:nonzero;stroke:none"
             id="path202" />
        </g>
        <g
           id="g204"
           transform="translate(204.703,174.102)">
          <path
             d="m 0,0 v 5.007 c 0,3.325 -2.277,5.957 -6.586,5.957 -4.277,0 -6.59,-2.632 -6.59,-5.957 V 0 c 0,-3.356 2.313,-5.954 6.59,-5.954 C -2.277,-5.954 0,-3.356 0,0 Z m -12.164,0 v 5.007 c 0,2.789 1.871,5.004 5.578,5.004 3.738,0 5.574,-2.215 5.574,-5.004 V 0 c 0,-2.817 -1.836,-5.036 -5.574,-5.036 -3.707,0 -5.578,2.219 -5.578,5.036 z"
             style="fill:none;stroke:#8e8686;stroke-width:0.891;stroke-linecap:butt;stroke-linejoin:miter;stroke-miterlimit:2;stroke-dasharray:none;stroke-opacity:1"
             id="path206" />
        </g>
        <g
           id="g208"
           transform="translate(219.336,190.414)">
          <path
             d="m 0,0 c 0.16,-0.031 0.254,0.035 0.254,0.16 v 0.539 c 0,0.125 -0.063,0.192 -0.188,0.223 -0.636,0.062 -1.492,0.094 -1.933,0.094 -3.012,0 -4.848,-1.934 -4.848,-5.164 v -17.614 c 0,-0.125 0.094,-0.191 0.191,-0.191 h 0.633 c 0.125,0 0.192,0.066 0.192,0.191 v 15.11 h 5.543 c 0.093,0 0.191,0.097 0.191,0.222 v 0.539 c 0,0.094 -0.098,0.192 -0.191,0.192 h -5.543 v 1.551 c 0,2.66 1.328,4.246 3.894,4.246 0.414,0 1.203,-0.032 1.805,-0.094 z"
             style="fill:#8e8686;fill-opacity:1;fill-rule:nonzero;stroke:none"
             id="path210" />
        </g>
        <g
           id="g212"
           transform="translate(219.336,190.414)">
          <path
             d="m 0,0 c 0.16,-0.031 0.254,0.035 0.254,0.16 v 0.539 c 0,0.125 -0.063,0.192 -0.188,0.223 -0.636,0.062 -1.492,0.094 -1.933,0.094 -3.012,0 -4.848,-1.934 -4.848,-5.164 v -17.614 c 0,-0.125 0.094,-0.191 0.191,-0.191 h 0.633 c 0.125,0 0.192,0.066 0.192,0.191 v 15.11 h 5.543 c 0.093,0 0.191,0.097 0.191,0.222 v 0.539 c 0,0.094 -0.098,0.192 -0.191,0.192 h -5.543 v 1.551 c 0,2.66 1.328,4.246 3.894,4.246 0.414,0 1.203,-0.032 1.805,-0.094 z"
             style="fill:none;stroke:#8e8686;stroke-width:0.891;stroke-linecap:butt;stroke-linejoin:miter;stroke-miterlimit:2;stroke-dasharray:none;stroke-opacity:1"
             id="path214" />
        </g>
        <g
           id="g216"
           transform="translate(237.262,179.047)">
          <path
             d="M 0,0 C 0,3.832 -2.598,6.019 -6.305,6.019 -10.012,6.019 -12.61,3.832 -12.61,0 v -5.133 c 0,-3.644 2.981,-5.766 6.305,-5.766 2.695,0 4.656,1.204 5.988,2.438 0.129,0.066 0.129,0.16 0.032,0.254 l -0.348,0.414 c -0.063,0.094 -0.16,0.094 -0.254,0.031 -1.203,-1.078 -2.914,-2.219 -5.387,-2.219 -2.883,0 -5.32,1.774 -5.32,4.848 v 2.09 H -0.192 C -0.094,-3.043 0,-2.981 0,-2.852 Z M -1.012,0 V -2.156 H -11.594 V 0 c 0,3.262 2.09,5.066 5.289,5.066 3.168,0 5.293,-1.836 5.293,-5.066"
             style="fill:#8e8686;fill-opacity:1;fill-rule:nonzero;stroke:none"
             id="path218" />
        </g>
        <g
           id="g220"
           transform="translate(237.262,179.047)">
          <path
             d="M 0,0 C 0,3.832 -2.598,6.019 -6.305,6.019 -10.012,6.019 -12.61,3.832 -12.61,0 v -5.133 c 0,-3.644 2.981,-5.766 6.305,-5.766 2.695,0 4.656,1.204 5.988,2.438 0.129,0.066 0.129,0.16 0.032,0.254 l -0.348,0.414 c -0.063,0.094 -0.16,0.094 -0.254,0.031 -1.203,-1.078 -2.914,-2.219 -5.387,-2.219 -2.883,0 -5.32,1.774 -5.32,4.848 v 2.09 H -0.192 C -0.094,-3.043 0,-2.981 0,-2.852 Z M -1.012,0 V -2.156 H -11.594 V 0 c 0,3.262 2.09,5.066 5.289,5.066 3.168,0 5.293,-1.836 5.293,-5.066 z"
             style="fill:none;stroke:#8e8686;stroke-width:0.891;stroke-linecap:butt;stroke-linejoin:miter;stroke-miterlimit:2;stroke-dasharray:none;stroke-opacity:1"
             id="path222" />
        </g>
        <g
           id="g224"
           transform="translate(255.93,172.707)">
          <path
             d="m 0,0 c 0,3.199 -2.946,3.93 -5.797,4.531 -2.473,0.508 -5.039,1.235 -5.039,3.707 0,1.996 1.933,3.168 4.562,3.168 1.871,0 3.676,-0.57 5.133,-1.394 0.094,-0.063 0.223,-0.031 0.254,0.062 l 0.285,0.477 c 0.063,0.094 0.031,0.191 -0.062,0.254 -1.586,0.918 -3.266,1.55 -5.578,1.55 -3.168,0 -5.575,-1.519 -5.575,-4.117 0,-3.168 3.231,-4.117 5.828,-4.656 2.344,-0.477 4.977,-1.016 4.977,-3.613 0,-2.344 -2.027,-3.61 -4.977,-3.61 -2.089,0 -3.863,0.664 -5.511,1.899 -0.094,0.097 -0.192,0.066 -0.254,-0.031 l -0.317,-0.473 c -0.062,-0.098 -0.062,-0.223 0.063,-0.285 1.711,-1.332 3.676,-2.028 6.019,-2.028 C -2.121,-4.559 0,-2.691 0,0"
             style="fill:#8e8686;fill-opacity:1;fill-rule:nonzero;stroke:none"
             id="path226" />
        </g>
        <g
           id="g228"
           transform="translate(255.93,172.707)">
          <path
             d="m 0,0 c 0,3.199 -2.946,3.93 -5.797,4.531 -2.473,0.508 -5.039,1.235 -5.039,3.707 0,1.996 1.933,3.168 4.562,3.168 1.871,0 3.676,-0.57 5.133,-1.394 0.094,-0.063 0.223,-0.031 0.254,0.062 l 0.285,0.477 c 0.063,0.094 0.031,0.191 -0.062,0.254 -1.586,0.918 -3.266,1.55 -5.578,1.55 -3.168,0 -5.575,-1.519 -5.575,-4.117 0,-3.168 3.231,-4.117 5.828,-4.656 2.344,-0.477 4.977,-1.016 4.977,-3.613 0,-2.344 -2.027,-3.61 -4.977,-3.61 -2.089,0 -3.863,0.664 -5.511,1.899 -0.094,0.097 -0.192,0.066 -0.254,-0.031 l -0.317,-0.473 c -0.062,-0.098 -0.062,-0.223 0.063,-0.285 1.711,-1.332 3.676,-2.028 6.019,-2.028 C -2.121,-4.559 0,-2.691 0,0 Z"
             style="fill:none;stroke:#8e8686;stroke-width:0.891;stroke-linecap:butt;stroke-linejoin:miter;stroke-miterlimit:2;stroke-dasharray:none;stroke-opacity:1"
             id="path230" />
        </g>
        <g
           id="g232"
           transform="translate(274.199,172.707)">
          <path
             d="m 0,0 c 0,3.199 -2.945,3.93 -5.797,4.531 -2.472,0.508 -5.035,1.235 -5.035,3.707 0,1.996 1.93,3.168 4.559,3.168 1.871,0 3.676,-0.57 5.133,-1.394 0.097,-0.063 0.222,-0.031 0.253,0.062 l 0.286,0.477 c 0.062,0.094 0.031,0.191 -0.063,0.254 -1.586,0.918 -3.262,1.55 -5.574,1.55 -3.168,0 -5.578,-1.519 -5.578,-4.117 0,-3.168 3.23,-4.117 5.828,-4.656 2.348,-0.477 4.977,-1.016 4.977,-3.613 0,-2.344 -2.028,-3.61 -4.977,-3.61 -2.09,0 -3.863,0.664 -5.512,1.899 -0.094,0.097 -0.187,0.066 -0.254,-0.031 l -0.316,-0.473 c -0.063,-0.098 -0.063,-0.223 0.066,-0.285 1.707,-1.332 3.672,-2.028 6.016,-2.028 C -2.121,-4.559 0,-2.691 0,0"
             style="fill:#8e8686;fill-opacity:1;fill-rule:nonzero;stroke:none"
             id="path234" />
        </g>
        <g
           id="g236"
           transform="translate(274.199,172.707)">
          <path
             d="m 0,0 c 0,3.199 -2.945,3.93 -5.797,4.531 -2.472,0.508 -5.035,1.235 -5.035,3.707 0,1.996 1.93,3.168 4.559,3.168 1.871,0 3.676,-0.57 5.133,-1.394 0.097,-0.063 0.222,-0.031 0.253,0.062 l 0.286,0.477 c 0.062,0.094 0.031,0.191 -0.063,0.254 -1.586,0.918 -3.262,1.55 -5.574,1.55 -3.168,0 -5.578,-1.519 -5.578,-4.117 0,-3.168 3.23,-4.117 5.828,-4.656 2.348,-0.477 4.977,-1.016 4.977,-3.613 0,-2.344 -2.028,-3.61 -4.977,-3.61 -2.09,0 -3.863,0.664 -5.512,1.899 -0.094,0.097 -0.187,0.066 -0.254,-0.031 l -0.316,-0.473 c -0.063,-0.098 -0.063,-0.223 0.066,-0.285 1.707,-1.332 3.672,-2.028 6.016,-2.028 C -2.121,-4.559 0,-2.691 0,0 Z"
             style="fill:none;stroke:#8e8686;stroke-width:0.891;stroke-linecap:butt;stroke-linejoin:miter;stroke-miterlimit:2;stroke-dasharray:none;stroke-opacity:1"
             id="path238" />
        </g>
        <g
           id="g240"
           transform="translate(282.359,168.465)">
          <path
             d="m 0,0 c 0.129,0 0.192,0.062 0.192,0.187 v 15.871 c 0,0.125 -0.063,0.223 -0.192,0.223 h -0.632 c -0.125,0 -0.192,-0.098 -0.192,-0.223 V 0.187 c 0,-0.129 0.067,-0.191 0.192,-0.191 z m 0.508,20.652 c 0,0.508 -0.347,0.824 -0.824,0.824 -0.477,0 -0.824,-0.316 -0.824,-0.824 0,-0.472 0.347,-0.789 0.824,-0.789 0.477,0 0.824,0.317 0.824,0.789"
             style="fill:#8e8686;fill-opacity:1;fill-rule:nonzero;stroke:none"
             id="path242" />
        </g>
        <g
           id="g244"
           transform="translate(282.359,168.465)">
          <path
             d="m 0,0 c 0.129,0 0.192,0.062 0.192,0.187 v 15.871 c 0,0.125 -0.063,0.223 -0.192,0.223 h -0.632 c -0.125,0 -0.192,-0.098 -0.192,-0.223 V 0.187 c 0,-0.129 0.067,-0.191 0.192,-0.191 z m 0.508,20.652 c 0,0.508 -0.347,0.824 -0.824,0.824 -0.477,0 -0.824,-0.316 -0.824,-0.824 0,-0.472 0.347,-0.789 0.824,-0.789 0.477,0 0.824,0.317 0.824,0.789 z"
             style="fill:none;stroke:#8e8686;stroke-width:0.891;stroke-linecap:butt;stroke-linejoin:miter;stroke-miterlimit:2;stroke-dasharray:none;stroke-opacity:1"
             id="path246" />
        </g>
        <g
           id="g248"
           transform="translate(303.652,174.102)">
          <path
             d="m 0,0 v 5.007 c 0,3.325 -2.281,5.957 -6.59,5.957 -4.277,0 -6.589,-2.632 -6.589,-5.957 V 0 c 0,-3.356 2.312,-5.954 6.589,-5.954 C -2.281,-5.954 0,-3.356 0,0 m -12.164,0 v 5.007 c 0,2.789 1.867,5.004 5.574,5.004 3.739,0 5.579,-2.215 5.579,-5.004 V 0 c 0,-2.817 -1.84,-5.036 -5.579,-5.036 -3.707,0 -5.574,2.219 -5.574,5.036"
             style="fill:#8e8686;fill-opacity:1;fill-rule:nonzero;stroke:none"
             id="path250" />
        </g>
        <g
           id="g252"
           transform="translate(303.652,174.102)">
          <path
             d="m 0,0 v 5.007 c 0,3.325 -2.281,5.957 -6.59,5.957 -4.277,0 -6.589,-2.632 -6.589,-5.957 V 0 c 0,-3.356 2.312,-5.954 6.589,-5.954 C -2.281,-5.954 0,-3.356 0,0 Z m -12.164,0 v 5.007 c 0,2.789 1.867,5.004 5.574,5.004 3.739,0 5.579,-2.215 5.579,-5.004 V 0 c 0,-2.817 -1.84,-5.036 -5.579,-5.036 -3.707,0 -5.574,2.219 -5.574,5.036 z"
             style="fill:none;stroke:#8e8686;stroke-width:0.891;stroke-linecap:butt;stroke-linejoin:miter;stroke-miterlimit:2;stroke-dasharray:none;stroke-opacity:1"
             id="path254" />
        </g>
        <g
           id="g256"
           transform="translate(312.359,168.465)">
          <path
             d="M 0,0 C 0.129,0 0.192,0.062 0.192,0.187 V 14.73 c 1.394,0.539 3.168,0.918 4.91,0.918 3.644,0 5.703,-1.804 5.703,-5.48 V 0.187 C 10.805,0.062 10.899,0 11.024,0 h 0.605 c 0.125,0 0.188,0.062 0.188,0.187 v 10.012 c 0,4.277 -2.5,6.402 -6.715,6.402 -2.059,0 -4.055,-0.445 -5.766,-1.207 -0.093,-0.062 -0.16,-0.156 -0.16,-0.25 V 0.191 C -0.824,0.062 -0.726,0 -0.632,0 Z"
             style="fill:#8e8686;fill-opacity:1;fill-rule:nonzero;stroke:none"
             id="path258" />
        </g>
        <g
           id="g260"
           transform="translate(312.359,168.465)">
          <path
             d="M 0,0 C 0.129,0 0.192,0.062 0.192,0.187 V 14.73 c 1.394,0.539 3.168,0.918 4.91,0.918 3.644,0 5.703,-1.804 5.703,-5.48 V 0.187 C 10.805,0.062 10.899,0 11.024,0 h 0.605 c 0.125,0 0.188,0.062 0.188,0.187 v 10.012 c 0,4.277 -2.5,6.402 -6.715,6.402 -2.059,0 -4.055,-0.445 -5.766,-1.207 -0.093,-0.062 -0.16,-0.156 -0.16,-0.25 V 0.191 C -0.824,0.062 -0.726,0 -0.632,0 Z"
             style="fill:none;stroke:#8e8686;stroke-width:0.891;stroke-linecap:butt;stroke-linejoin:miter;stroke-miterlimit:2;stroke-dasharray:none;stroke-opacity:1"
             id="path262" />
        </g>
        <g
           id="g264"
           transform="translate(332.203,183.449)">
          <path
             d="m 0,0 c -0.062,-0.062 -0.031,-0.16 0,-0.254 l 0.285,-0.445 c 0.067,-0.062 0.16,-0.094 0.285,-0.031 1.207,0.761 3.075,1.394 5.071,1.394 3.515,0 4.879,-1.898 4.879,-4.91 v -1.648 c -1.266,0.285 -3.008,0.601 -4.879,0.601 -4.086,0 -6.492,-1.773 -6.492,-4.941 0,-3.199 2.785,-5.067 6.492,-5.067 2.344,0 4.402,0.54 5.734,1.11 0.125,0.031 0.16,0.156 0.16,0.219 v 9.757 c 0,3.551 -1.871,5.828 -5.863,5.828 C 3.391,1.613 1.363,0.949 0,0 m 0.16,-10.234 c 0,2.566 1.903,4.023 5.481,4.023 1.804,0 3.644,-0.285 4.879,-0.57 v -6.715 c -1.172,-0.445 -2.821,-0.887 -4.879,-0.887 -3.199,0 -5.481,1.614 -5.481,4.149"
             style="fill:#8e8686;fill-opacity:1;fill-rule:nonzero;stroke:none"
             id="path266" />
        </g>
        <g
           id="g268"
           transform="translate(332.203,183.449)">
          <path
             d="m 0,0 c -0.062,-0.062 -0.031,-0.16 0,-0.254 l 0.285,-0.445 c 0.067,-0.062 0.16,-0.094 0.285,-0.031 1.207,0.761 3.075,1.394 5.071,1.394 3.515,0 4.879,-1.898 4.879,-4.91 v -1.648 c -1.266,0.285 -3.008,0.601 -4.879,0.601 -4.086,0 -6.492,-1.773 -6.492,-4.941 0,-3.199 2.785,-5.067 6.492,-5.067 2.344,0 4.402,0.54 5.734,1.11 0.125,0.031 0.16,0.156 0.16,0.219 v 9.757 c 0,3.551 -1.871,5.828 -5.863,5.828 C 3.391,1.613 1.363,0.949 0,0 Z m 0.16,-10.234 c 0,2.566 1.903,4.023 5.481,4.023 1.804,0 3.644,-0.285 4.879,-0.57 v -6.715 c -1.172,-0.445 -2.821,-0.887 -4.879,-0.887 -3.199,0 -5.481,1.614 -5.481,4.149 z"
             style="fill:none;stroke:#8e8686;stroke-width:0.891;stroke-linecap:butt;stroke-linejoin:miter;stroke-miterlimit:2;stroke-dasharray:none;stroke-opacity:1"
             id="path270" />
        </g>
        <g
           id="g272"
           transform="translate(357.797,168.27)">
          <path
             d="M 0,0 C 0.125,0.031 0.187,0.125 0.187,0.253 V 0.789 C 0.187,0.918 0.125,0.949 0,0.949 -0.637,0.855 -1.363,0.824 -1.809,0.824 c -1.867,0 -3.039,1.172 -3.039,4.179 v 17.649 c 0,0.125 -0.066,0.187 -0.191,0.187 h -0.633 c -0.129,0 -0.191,-0.062 -0.191,-0.187 V 5.101 c 0,-3.707 1.586,-5.23 4.023,-5.23 0.508,0 1.301,0.066 1.84,0.129"
             style="fill:#8e8686;fill-opacity:1;fill-rule:nonzero;stroke:none"
             id="path274" />
        </g>
        <g
           id="g276"
           transform="translate(357.797,168.27)">
          <path
             d="M 0,0 C 0.125,0.031 0.187,0.125 0.187,0.253 V 0.789 C 0.187,0.918 0.125,0.949 0,0.949 -0.637,0.855 -1.363,0.824 -1.809,0.824 c -1.867,0 -3.039,1.172 -3.039,4.179 v 17.649 c 0,0.125 -0.066,0.187 -0.191,0.187 h -0.633 c -0.129,0 -0.191,-0.062 -0.191,-0.187 V 5.101 c 0,-3.707 1.586,-5.23 4.023,-5.23 0.508,0 1.301,0.066 1.84,0.129 z"
             style="fill:none;stroke:#8e8686;stroke-width:0.891;stroke-linecap:butt;stroke-linejoin:miter;stroke-miterlimit:2;stroke-dasharray:none;stroke-opacity:1"
             id="path278" />
        </g>
        <g
           id="g280"
           transform="translate(385.859,174.133)">
          <path
             d="m 0,0 c 0,3.39 -2.152,5.07 -7.761,6.398 -4.403,1.047 -6.653,2.473 -6.653,5.356 0,3.136 2.914,4.562 6.243,4.562 2.66,-0.031 4.972,-0.793 6.937,-2.375 0.094,-0.066 0.191,-0.066 0.285,0.063 l 0.317,0.508 c 0.062,0.062 0.093,0.187 -0.032,0.25 -2.125,1.679 -4.402,2.535 -7.383,2.535 -4.023,0 -7.445,-1.711 -7.445,-5.481 0,-3.453 2.664,-5.32 7.508,-6.429 5.102,-1.172 6.906,-2.504 6.906,-5.387 0,-3.324 -2.754,-4.973 -6.683,-4.973 -2.786,0 -4.879,0.887 -7.16,2.789 -0.094,0.063 -0.188,0.031 -0.286,-0.066 l -0.379,-0.473 c -0.062,-0.098 -0.062,-0.191 0.032,-0.285 2.441,-2.059 4.625,-2.98 7.793,-2.98 C -3.136,-5.988 0,-3.863 0,0"
             style="fill:#8e8686;fill-opacity:1;fill-rule:nonzero;stroke:none"
             id="path282" />
        </g>
        <g
           id="g284"
           transform="translate(385.859,174.133)">
          <path
             d="m 0,0 c 0,3.39 -2.152,5.07 -7.761,6.398 -4.403,1.047 -6.653,2.473 -6.653,5.356 0,3.136 2.914,4.562 6.243,4.562 2.66,-0.031 4.972,-0.793 6.937,-2.375 0.094,-0.066 0.191,-0.066 0.285,0.063 l 0.317,0.508 c 0.062,0.062 0.093,0.187 -0.032,0.25 -2.125,1.679 -4.402,2.535 -7.383,2.535 -4.023,0 -7.445,-1.711 -7.445,-5.481 0,-3.453 2.664,-5.32 7.508,-6.429 5.102,-1.172 6.906,-2.504 6.906,-5.387 0,-3.324 -2.754,-4.973 -6.683,-4.973 -2.786,0 -4.879,0.887 -7.16,2.789 -0.094,0.063 -0.188,0.031 -0.286,-0.066 l -0.379,-0.473 c -0.062,-0.098 -0.062,-0.191 0.032,-0.285 2.441,-2.059 4.625,-2.98 7.793,-2.98 C -3.136,-5.988 0,-3.863 0,0 Z"
             style="fill:none;stroke:#8e8686;stroke-width:0.891;stroke-linecap:butt;stroke-linejoin:miter;stroke-miterlimit:2;stroke-dasharray:none;stroke-opacity:1"
             id="path286" />
        </g>
        <g
           id="g288"
           transform="translate(405.488,179.047)">
          <path
             d="m 0,0 c 0,3.832 -2.597,6.019 -6.304,6.019 -3.707,0 -6.305,-2.187 -6.305,-6.019 v -5.133 c 0,-3.644 2.976,-5.766 6.305,-5.766 2.691,0 4.656,1.204 5.988,2.438 0.125,0.066 0.125,0.16 0.031,0.254 l -0.348,0.414 c -0.066,0.094 -0.16,0.094 -0.253,0.031 -1.204,-1.078 -2.914,-2.219 -5.387,-2.219 -2.883,0 -5.32,1.774 -5.32,4.848 v 2.09 H -0.191 C -0.097,-3.043 0,-2.981 0,-2.852 Z M -1.015,0 V -2.156 H -11.593 V 0 c 0,3.262 2.089,5.066 5.289,5.066 3.168,0 5.289,-1.836 5.289,-5.066"
             style="fill:#8e8686;fill-opacity:1;fill-rule:nonzero;stroke:none"
             id="path290" />
        </g>
        <g
           id="g292"
           transform="translate(405.488,179.047)">
          <path
             d="m 0,0 c 0,3.832 -2.597,6.019 -6.304,6.019 -3.707,0 -6.305,-2.187 -6.305,-6.019 v -5.133 c 0,-3.644 2.976,-5.766 6.305,-5.766 2.691,0 4.656,1.204 5.988,2.438 0.125,0.066 0.125,0.16 0.031,0.254 l -0.348,0.414 c -0.066,0.094 -0.16,0.094 -0.253,0.031 -1.204,-1.078 -2.914,-2.219 -5.387,-2.219 -2.883,0 -5.32,1.774 -5.32,4.848 v 2.09 H -0.191 C -0.097,-3.043 0,-2.981 0,-2.852 Z M -1.015,0 V -2.156 H -11.593 V 0 c 0,3.262 2.089,5.066 5.289,5.066 3.168,0 5.289,-1.836 5.289,-5.066 z"
             style="fill:none;stroke:#8e8686;stroke-width:0.891;stroke-linecap:butt;stroke-linejoin:miter;stroke-miterlimit:2;stroke-dasharray:none;stroke-opacity:1"
             id="path294" />
        </g>
        <g
           id="g296"
           transform="translate(414.023,168.465)">
          <path
             d="m 0,0 c 0.125,0 0.188,0.062 0.188,0.187 v 14.637 c 1.363,0.539 3.012,0.824 4.531,0.824 1.047,0 2.156,-0.093 3.137,-0.254 0.129,-0.031 0.191,0.032 0.191,0.161 v 0.539 c 0,0.125 -0.031,0.187 -0.191,0.218 -1.012,0.161 -2.121,0.285 -3.199,0.285 -1.805,0 -3.801,-0.378 -5.325,-1.105 -0.093,-0.035 -0.156,-0.129 -0.156,-0.223 V 0.187 C -0.824,0.062 -0.73,0 -0.632,0 Z"
             style="fill:#8e8686;fill-opacity:1;fill-rule:nonzero;stroke:none"
             id="path298" />
        </g>
        <g
           id="g300"
           transform="translate(414.023,168.465)">
          <path
             d="m 0,0 c 0.125,0 0.188,0.062 0.188,0.187 v 14.637 c 1.363,0.539 3.012,0.824 4.531,0.824 1.047,0 2.156,-0.093 3.137,-0.254 0.129,-0.031 0.191,0.032 0.191,0.161 v 0.539 c 0,0.125 -0.031,0.187 -0.191,0.218 -1.012,0.161 -2.121,0.285 -3.199,0.285 -1.805,0 -3.801,-0.378 -5.325,-1.105 -0.093,-0.035 -0.156,-0.129 -0.156,-0.223 V 0.187 C -0.824,0.062 -0.73,0 -0.632,0 Z"
             style="fill:none;stroke:#8e8686;stroke-width:0.891;stroke-linecap:butt;stroke-linejoin:miter;stroke-miterlimit:2;stroke-dasharray:none;stroke-opacity:1"
             id="path302" />
        </g>
        <g
           id="g304"
           transform="translate(434.129,168.465)">
          <path
             d="m 0,0 c 0.098,0 0.191,0.062 0.254,0.156 l 6.211,15.871 c 0.031,0.129 -0.032,0.254 -0.16,0.254 H 5.641 c -0.094,0 -0.223,-0.094 -0.254,-0.156 L -0.379,1.203 -6.176,16.125 c -0.031,0.062 -0.129,0.156 -0.223,0.156 h -0.664 c -0.128,0 -0.222,-0.125 -0.16,-0.254 L -1.012,0.156 C -0.981,0.062 -0.887,0 -0.789,0 Z"
             style="fill:#8e8686;fill-opacity:1;fill-rule:nonzero;stroke:none"
             id="path306" />
        </g>
        <g
           id="g308"
           transform="translate(434.129,168.465)">
          <path
             d="m 0,0 c 0.098,0 0.191,0.062 0.254,0.156 l 6.211,15.871 c 0.031,0.129 -0.032,0.254 -0.16,0.254 H 5.641 c -0.094,0 -0.223,-0.094 -0.254,-0.156 L -0.379,1.203 -6.176,16.125 c -0.031,0.062 -0.129,0.156 -0.223,0.156 h -0.664 c -0.128,0 -0.222,-0.125 -0.16,-0.254 L -1.012,0.156 C -0.981,0.062 -0.887,0 -0.789,0 Z"
             style="fill:none;stroke:#8e8686;stroke-width:0.891;stroke-linecap:butt;stroke-linejoin:miter;stroke-miterlimit:2;stroke-dasharray:none;stroke-opacity:1"
             id="path310" />
        </g>
        <g
           id="g312"
           transform="translate(448.23,168.465)">
          <path
             d="m 0,0 c 0.125,0 0.192,0.062 0.192,0.187 v 15.871 c 0,0.125 -0.067,0.223 -0.192,0.223 h -0.632 c -0.129,0 -0.192,-0.098 -0.192,-0.223 V 0.187 c 0,-0.129 0.063,-0.191 0.192,-0.191 z m 0.508,20.652 c 0,0.508 -0.351,0.824 -0.824,0.824 -0.476,0 -0.824,-0.316 -0.824,-0.824 0,-0.472 0.348,-0.789 0.824,-0.789 0.473,0 0.824,0.317 0.824,0.789"
             style="fill:#8e8686;fill-opacity:1;fill-rule:nonzero;stroke:none"
             id="path314" />
        </g>
        <g
           id="g316"
           transform="translate(448.23,168.465)">
          <path
             d="m 0,0 c 0.125,0 0.192,0.062 0.192,0.187 v 15.871 c 0,0.125 -0.067,0.223 -0.192,0.223 h -0.632 c -0.129,0 -0.192,-0.098 -0.192,-0.223 V 0.187 c 0,-0.129 0.063,-0.191 0.192,-0.191 z m 0.508,20.652 c 0,0.508 -0.351,0.824 -0.824,0.824 -0.476,0 -0.824,-0.316 -0.824,-0.824 0,-0.472 0.348,-0.789 0.824,-0.789 0.473,0 0.824,0.317 0.824,0.789 z"
             style="fill:none;stroke:#8e8686;stroke-width:0.891;stroke-linecap:butt;stroke-linejoin:miter;stroke-miterlimit:2;stroke-dasharray:none;stroke-opacity:1"
             id="path318" />
        </g>
        <g
           id="g320"
           transform="translate(468.164,170.105)">
          <path
             d="M 0,0 C 0.129,0.063 0.129,0.192 0.063,0.286 L -0.254,0.7 c -0.062,0.093 -0.156,0.125 -0.285,0.031 -1.582,-1.172 -3.168,-1.774 -5.004,-1.774 -3.359,0 -5.258,2.215 -5.258,4.942 v 5.195 c 0,2.692 1.867,4.91 5.258,4.91 1.711,0 3.137,-0.445 4.594,-1.488 0.125,-0.098 0.191,-0.031 0.285,0.031 l 0.285,0.442 c 0.063,0.097 0.063,0.191 -0.062,0.285 -1.555,1.109 -3.168,1.68 -5.071,1.68 -3.961,0 -6.304,-2.598 -6.304,-5.86 V 3.899 c 0,-3.266 2.343,-5.863 6.304,-5.863 2.121,0 3.868,0.668 5.512,1.964"
             style="fill:#8e8686;fill-opacity:1;fill-rule:nonzero;stroke:none"
             id="path322" />
        </g>
        <g
           id="g324"
           transform="translate(468.164,170.105)">
          <path
             d="M 0,0 C 0.129,0.063 0.129,0.192 0.063,0.286 L -0.254,0.7 c -0.062,0.093 -0.156,0.125 -0.285,0.031 -1.582,-1.172 -3.168,-1.774 -5.004,-1.774 -3.359,0 -5.258,2.215 -5.258,4.942 v 5.195 c 0,2.692 1.867,4.91 5.258,4.91 1.711,0 3.137,-0.445 4.594,-1.488 0.125,-0.098 0.191,-0.031 0.285,0.031 l 0.285,0.442 c 0.063,0.097 0.063,0.191 -0.062,0.285 -1.555,1.109 -3.168,1.68 -5.071,1.68 -3.961,0 -6.304,-2.598 -6.304,-5.86 V 3.899 c 0,-3.266 2.343,-5.863 6.304,-5.863 2.121,0 3.868,0.668 5.512,1.964 z"
             style="fill:none;stroke:#8e8686;stroke-width:0.891;stroke-linecap:butt;stroke-linejoin:miter;stroke-miterlimit:2;stroke-dasharray:none;stroke-opacity:1"
             id="path326" />
        </g>
        <g
           id="g328"
           transform="translate(487.164,179.047)">
          <path
             d="m 0,0 c 0,3.832 -2.598,6.019 -6.305,6.019 -3.707,0 -6.304,-2.187 -6.304,-6.019 v -5.133 c 0,-3.644 2.976,-5.766 6.304,-5.766 2.692,0 4.657,1.204 5.985,2.438 0.129,0.066 0.129,0.16 0.035,0.254 l -0.352,0.414 c -0.062,0.094 -0.156,0.094 -0.25,0.031 -1.207,-1.078 -2.918,-2.219 -5.386,-2.219 -2.883,0 -5.325,1.774 -5.325,4.848 v 2.09 H -0.191 C -0.098,-3.043 0,-2.981 0,-2.852 Z M -1.016,0 V -2.156 H -11.598 V 0 c 0,3.262 2.094,5.066 5.293,5.066 3.168,0 5.289,-1.836 5.289,-5.066"
             style="fill:#8e8686;fill-opacity:1;fill-rule:nonzero;stroke:none"
             id="path330" />
        </g>
        <g
           id="g332"
           transform="translate(487.164,179.047)">
          <path
             d="m 0,0 c 0,3.832 -2.598,6.019 -6.305,6.019 -3.707,0 -6.304,-2.187 -6.304,-6.019 v -5.133 c 0,-3.644 2.976,-5.766 6.304,-5.766 2.692,0 4.657,1.204 5.985,2.438 0.129,0.066 0.129,0.16 0.035,0.254 l -0.352,0.414 c -0.062,0.094 -0.156,0.094 -0.25,0.031 -1.207,-1.078 -2.918,-2.219 -5.386,-2.219 -2.883,0 -5.325,1.774 -5.325,4.848 v 2.09 H -0.191 C -0.098,-3.043 0,-2.981 0,-2.852 Z M -1.016,0 V -2.156 H -11.598 V 0 c 0,3.262 2.094,5.066 5.293,5.066 3.168,0 5.289,-1.836 5.289,-5.066 z"
             style="fill:none;stroke:#8e8686;stroke-width:0.891;stroke-linecap:butt;stroke-linejoin:miter;stroke-miterlimit:2;stroke-dasharray:none;stroke-opacity:1"
             id="path334" />
        </g>
        <g
           id="g336"
           transform="translate(505.836,172.707)">
          <path
             d="m 0,0 c 0,3.199 -2.945,3.93 -5.797,4.531 -2.469,0.508 -5.035,1.235 -5.035,3.707 0,1.996 1.93,3.168 4.562,3.168 1.868,0 3.672,-0.57 5.129,-1.394 0.098,-0.063 0.223,-0.031 0.254,0.062 l 0.285,0.477 c 0.067,0.094 0.032,0.191 -0.062,0.254 -1.582,0.918 -3.262,1.55 -5.574,1.55 -3.168,0 -5.578,-1.519 -5.578,-4.117 0,-3.168 3.234,-4.117 5.832,-4.656 2.343,-0.477 4.972,-1.016 4.972,-3.613 0,-2.344 -2.027,-3.61 -4.972,-3.61 -2.094,0 -3.868,0.664 -5.516,1.899 -0.094,0.097 -0.188,0.066 -0.25,-0.031 l -0.32,-0.473 c -0.063,-0.098 -0.063,-0.223 0.066,-0.285 1.711,-1.332 3.672,-2.028 6.02,-2.028 C -2.121,-4.559 0,-2.691 0,0"
             style="fill:#8e8686;fill-opacity:1;fill-rule:nonzero;stroke:none"
             id="path338" />
        </g>
        <g
           id="g340"
           transform="translate(505.836,172.707)">
          <path
             d="m 0,0 c 0,3.199 -2.945,3.93 -5.797,4.531 -2.469,0.508 -5.035,1.235 -5.035,3.707 0,1.996 1.93,3.168 4.562,3.168 1.868,0 3.672,-0.57 5.129,-1.394 0.098,-0.063 0.223,-0.031 0.254,0.062 l 0.285,0.477 c 0.067,0.094 0.032,0.191 -0.062,0.254 -1.582,0.918 -3.262,1.55 -5.574,1.55 -3.168,0 -5.578,-1.519 -5.578,-4.117 0,-3.168 3.234,-4.117 5.832,-4.656 2.343,-0.477 4.972,-1.016 4.972,-3.613 0,-2.344 -2.027,-3.61 -4.972,-3.61 -2.094,0 -3.868,0.664 -5.516,1.899 -0.094,0.097 -0.188,0.066 -0.25,-0.031 l -0.32,-0.473 c -0.063,-0.098 -0.063,-0.223 0.066,-0.285 1.711,-1.332 3.672,-2.028 6.02,-2.028 C -2.121,-4.559 0,-2.691 0,0 Z"
             style="fill:none;stroke:#8e8686;stroke-width:0.891;stroke-linecap:butt;stroke-linejoin:miter;stroke-miterlimit:2;stroke-dasharray:none;stroke-opacity:1"
             id="path342" />
        </g>
        <g
           id="g344"
           transform="translate(536.086,171.188)">
          <path
             d="M 0,0 C 0.062,0.062 0.094,0.156 0.094,0.25 V 8.773 C 0.094,8.902 0,8.964 -0.098,8.964 h -7.508 c -0.125,0 -0.187,-0.062 -0.187,-0.191 V 8.171 c 0,-0.125 0.062,-0.191 0.187,-0.191 h 6.653 V 0.503 c -1.867,-1.675 -4.242,-2.531 -6.746,-2.531 -4.5,0 -6.844,2.692 -6.844,6.524 v 8.238 c 0,3.832 2.312,6.527 6.75,6.527 2.406,0 4.848,-0.824 6.684,-2.312 0.125,-0.067 0.222,-0.035 0.285,0.062 l 0.347,0.473 c 0.094,0.098 0.094,0.223 -0.031,0.285 -2.09,1.648 -4.719,2.473 -7.285,2.473 -4.941,0 -7.793,-3.043 -7.793,-7.508 V 4.496 c 0,-4.434 2.883,-7.539 7.887,-7.539 2.851,0 5.574,1.015 7.699,3.043"
             style="fill:#8e8686;fill-opacity:1;fill-rule:nonzero;stroke:none"
             id="path346" />
        </g>
        <g
           id="g348"
           transform="translate(536.086,171.188)">
          <path
             d="M 0,0 C 0.062,0.062 0.094,0.156 0.094,0.25 V 8.773 C 0.094,8.902 0,8.964 -0.098,8.964 h -7.508 c -0.125,0 -0.187,-0.062 -0.187,-0.191 V 8.171 c 0,-0.125 0.062,-0.191 0.187,-0.191 h 6.653 V 0.503 c -1.867,-1.675 -4.242,-2.531 -6.746,-2.531 -4.5,0 -6.844,2.692 -6.844,6.524 v 8.238 c 0,3.832 2.312,6.527 6.75,6.527 2.406,0 4.848,-0.824 6.684,-2.312 0.125,-0.067 0.222,-0.035 0.285,0.062 l 0.347,0.473 c 0.094,0.098 0.094,0.223 -0.031,0.285 -2.09,1.648 -4.719,2.473 -7.285,2.473 -4.941,0 -7.793,-3.043 -7.793,-7.508 V 4.496 c 0,-4.434 2.883,-7.539 7.887,-7.539 2.851,0 5.574,1.015 7.699,3.043 z"
             style="fill:none;stroke:#8e8686;stroke-width:0.891;stroke-linecap:butt;stroke-linejoin:miter;stroke-miterlimit:2;stroke-dasharray:none;stroke-opacity:1"
             id="path350" />
        </g>
        <g
           id="g352"
           transform="translate(545.219,168.465)">
          <path
             d="m 0,0 c 0.129,0 0.191,0.062 0.191,0.187 v 14.637 c 1.363,0.539 3.008,0.824 4.531,0.824 1.043,0 2.153,-0.093 3.137,-0.254 0.125,-0.031 0.188,0.032 0.188,0.161 v 0.539 c 0,0.125 -0.032,0.187 -0.188,0.218 -1.016,0.161 -2.125,0.285 -3.199,0.285 -1.809,0 -3.805,-0.378 -5.324,-1.105 -0.094,-0.035 -0.16,-0.129 -0.16,-0.223 V 0.187 C -0.824,0.062 -0.727,0 -0.633,0 Z"
             style="fill:#8e8686;fill-opacity:1;fill-rule:nonzero;stroke:none"
             id="path354" />
        </g>
        <g
           id="g356"
           transform="translate(545.219,168.465)">
          <path
             d="m 0,0 c 0.129,0 0.191,0.062 0.191,0.187 v 14.637 c 1.363,0.539 3.008,0.824 4.531,0.824 1.043,0 2.153,-0.093 3.137,-0.254 0.125,-0.031 0.188,0.032 0.188,0.161 v 0.539 c 0,0.125 -0.032,0.187 -0.188,0.218 -1.016,0.161 -2.125,0.285 -3.199,0.285 -1.809,0 -3.805,-0.378 -5.324,-1.105 -0.094,-0.035 -0.16,-0.129 -0.16,-0.223 V 0.187 C -0.824,0.062 -0.727,0 -0.633,0 Z"
             style="fill:none;stroke:#8e8686;stroke-width:0.891;stroke-linecap:butt;stroke-linejoin:miter;stroke-miterlimit:2;stroke-dasharray:none;stroke-opacity:1"
             id="path358" />
        </g>
        <g
           id="g360"
           transform="translate(571.559,174.102)">
          <path
             d="m 0,0 v 5.007 c 0,3.325 -2.282,5.957 -6.59,5.957 -4.274,0 -6.586,-2.632 -6.586,-5.957 V 0 c 0,-3.356 2.312,-5.954 6.586,-5.954 C -2.282,-5.954 0,-3.356 0,0 m -12.164,0 v 5.007 c 0,2.789 1.871,5.004 5.574,5.004 3.738,0 5.578,-2.215 5.578,-5.004 V 0 c 0,-2.817 -1.84,-5.036 -5.578,-5.036 -3.703,0 -5.574,2.219 -5.574,5.036"
             style="fill:#8e8686;fill-opacity:1;fill-rule:nonzero;stroke:none"
             id="path362" />
        </g>
        <g
           id="g364"
           transform="translate(571.559,174.102)">
          <path
             d="m 0,0 v 5.007 c 0,3.325 -2.282,5.957 -6.59,5.957 -4.274,0 -6.586,-2.632 -6.586,-5.957 V 0 c 0,-3.356 2.312,-5.954 6.586,-5.954 C -2.282,-5.954 0,-3.356 0,0 Z m -12.164,0 v 5.007 c 0,2.789 1.871,5.004 5.574,5.004 3.738,0 5.578,-2.215 5.578,-5.004 V 0 c 0,-2.817 -1.84,-5.036 -5.578,-5.036 -3.703,0 -5.574,2.219 -5.574,5.036 z"
             style="fill:none;stroke:#8e8686;stroke-width:0.891;stroke-linecap:butt;stroke-linejoin:miter;stroke-miterlimit:2;stroke-dasharray:none;stroke-opacity:1"
             id="path366" />
        </g>
        <g
           id="g368"
           transform="translate(590.941,184.746)">
          <path
             d="M 0,0 C -0.129,0 -0.222,-0.094 -0.222,-0.223 V -14.73 c -1.395,-0.539 -3.043,-0.954 -4.785,-0.954 -3.547,0 -5.575,1.809 -5.575,5.485 v 9.976 c 0,0.129 -0.062,0.223 -0.191,0.223 h -0.633 c -0.125,0 -0.191,-0.094 -0.191,-0.223 v -9.976 c 0,-4.246 2.504,-6.402 6.59,-6.402 2.027,0 3.992,0.445 5.64,1.203 0.125,0.035 0.156,0.16 0.156,0.254 v 14.925 c 0,0.129 -0.062,0.223 -0.187,0.223 z"
             style="fill:#8e8686;fill-opacity:1;fill-rule:nonzero;stroke:none"
             id="path370" />
        </g>
        <g
           id="g372"
           transform="translate(590.941,184.746)">
          <path
             d="M 0,0 C -0.129,0 -0.222,-0.094 -0.222,-0.223 V -14.73 c -1.395,-0.539 -3.043,-0.954 -4.785,-0.954 -3.547,0 -5.575,1.809 -5.575,5.485 v 9.976 c 0,0.129 -0.062,0.223 -0.191,0.223 h -0.633 c -0.125,0 -0.191,-0.094 -0.191,-0.223 v -9.976 c 0,-4.246 2.504,-6.402 6.59,-6.402 2.027,0 3.992,0.445 5.64,1.203 0.125,0.035 0.156,0.16 0.156,0.254 v 14.925 c 0,0.129 -0.062,0.223 -0.187,0.223 z"
             style="fill:none;stroke:#8e8686;stroke-width:0.891;stroke-linecap:butt;stroke-linejoin:miter;stroke-miterlimit:2;stroke-dasharray:none;stroke-opacity:1"
             id="path374" />
        </g>
        <g
           id="g376"
           transform="translate(600.309,183.922)">
          <path
             d="m 0,0 c -0.067,-0.031 -0.129,-0.129 -0.129,-0.223 v -21.066 c 0,-0.129 0.097,-0.192 0.191,-0.192 h 0.633 c 0.129,0 0.191,0.063 0.191,0.192 v 6.937 c 1.328,-0.886 3.106,-1.425 4.942,-1.425 4.148,0 6.683,2.183 6.683,6.777 v 3.359 C 12.511,-0.953 9.945,1.14 5.796,1.14 3.738,1.14 1.742,0.726 0,0 m 5.796,-14.86 c -1.773,0 -3.515,0.602 -4.91,1.551 v 12.641 c 1.426,0.539 3.137,0.887 4.91,0.887 3.61,0 5.672,-1.743 5.672,-5.864 V -9 c 0,-4.086 -2.027,-5.863 -5.672,-5.863 z"
             style="fill:#8e8686;fill-opacity:1;fill-rule:nonzero;stroke:none"
             id="path378" />
        </g>
        <g
           id="g380"
           transform="translate(600.309,183.922)">
          <path
             d="m 0,0 c -0.067,-0.031 -0.129,-0.129 -0.129,-0.223 v -21.066 c 0,-0.129 0.097,-0.192 0.191,-0.192 h 0.633 c 0.129,0 0.191,0.063 0.191,0.192 v 6.937 c 1.328,-0.886 3.106,-1.425 4.942,-1.425 4.148,0 6.683,2.183 6.683,6.777 v 3.359 C 12.511,-0.953 9.945,1.14 5.796,1.14 3.738,1.14 1.742,0.726 0,0 Z m 5.796,-14.86 c -1.773,0 -3.515,0.602 -4.91,1.551 v 12.641 c 1.426,0.539 3.137,0.887 4.91,0.887 3.61,0 5.672,-1.743 5.672,-5.864 V -9 c 0,-4.086 -2.027,-5.863 -5.672,-5.863 z"
             style="fill:none;stroke:#8e8686;stroke-width:0.891;stroke-linecap:butt;stroke-linejoin:miter;stroke-miterlimit:2;stroke-dasharray:none;stroke-opacity:1"
             id="path382" />
        </g>
        <g
           id="g384"
           transform="translate(211.566,270.074)"
           inkscape:export-filename="../17b946ec/d55psg-logoname.svg"
           inkscape:export-xdpi="96"
           inkscape:export-ydpi="96">
          <path
             d="m 0,0 c -3.246,1.141 -6.523,1.711 -9.828,1.711 h -47.617 v -59.156 h 47.617 c 3.305,0 6.582,0.57 9.828,1.715 5.895,2.043 10.645,5.621 14.25,10.73 3.668,5.172 5.5,10.883 5.5,17.133 0,6.254 -1.832,11.938 -5.5,17.047 C 10.641,-5.652 5.895,-2.043 0,0 m -1.621,-51.043 c -2.527,-0.902 -5.261,-1.351 -8.207,-1.351 h -42.57 V -3.34 h 42.566 c 2.946,0 5.68,-0.449 8.204,-1.351 4.871,-1.742 8.808,-4.75 11.816,-9.016 3.004,-4.269 4.508,-8.988 4.508,-14.16 0,-5.172 -1.504,-9.891 -4.508,-14.16 -3.008,-4.266 -6.945,-7.274 -11.816,-9.016 z"
             style="fill:#888888;fill-opacity:1;fill-rule:nonzero;stroke:none"
             id="path386" />
        </g>
        <g
           id="g388"
           transform="translate(287.648,247.527)">
          <path
             d="M 0,0 C -5.71,3.789 -12.566,5.684 -20.562,5.684 H -39.05 V 18.758 H 6.493 c 1.683,0 2.523,0.813 2.523,2.438 0,1.683 -0.84,2.523 -2.523,2.523 h -50.59 V 0.723 h 23.535 c 6.734,0 12.504,-1.531 17.316,-4.598 4.868,-3.066 7.305,-6.734 7.305,-11.004 0,-4.269 -2.406,-7.933 -7.215,-11 -4.812,-3.007 -10.613,-4.511 -17.406,-4.511 -6.793,0 -12.594,1.504 -17.402,4.511 -4.75,3.067 -7.125,6.735 -7.125,11 0,1.684 -0.844,2.528 -2.528,2.528 -1.621,0 -2.433,-0.844 -2.433,-2.528 0,-5.832 3.007,-10.761 9.019,-14.789 5.649,-3.785 12.473,-5.679 20.469,-5.679 8.055,0 14.91,1.894 20.562,5.679 6.012,4.028 9.016,8.957 9.016,14.789 0,5.895 -3.004,10.852 -9.016,14.883 z"
             style="fill:#888888;fill-opacity:1;fill-rule:nonzero;stroke:none"
             id="path390" />
        </g>
        <g
           id="g392"
           transform="translate(354.051,247.527)">
          <path
             d="M 0,0 C -5.711,3.789 -12.563,5.684 -20.559,5.684 H -39.047 V 18.758 H 6.496 c 1.683,0 2.523,0.813 2.523,2.438 0,1.683 -0.84,2.523 -2.523,2.523 H -44.102 V 0.723 h 23.539 c 6.735,0 12.504,-1.531 17.313,-4.598 4.871,-3.066 7.304,-6.734 7.304,-11.004 0,-4.269 -2.402,-7.933 -7.214,-11 -4.809,-3.007 -10.61,-4.511 -17.403,-4.511 -6.793,0 -12.593,1.504 -17.406,4.511 -4.75,3.067 -7.125,6.735 -7.125,11 0,1.684 -0.84,2.528 -2.523,2.528 -1.622,0 -2.434,-0.844 -2.434,-2.528 0,-5.832 3.004,-10.761 9.016,-14.789 5.652,-3.785 12.476,-5.679 20.472,-5.679 8.055,0 14.91,1.894 20.559,5.679 6.015,4.028 9.019,8.957 9.019,14.789 0,5.895 -3.004,10.852 -9.019,14.883 z"
             style="fill:#888888;fill-opacity:1;fill-rule:nonzero;stroke:none"
             id="path394" />
        </g>
        <g
           id="g396"
           transform="translate(427.305,271.785)">
          <path
             d="m 0,0 h -56.633 v -56.637 c 0,-1.679 0.84,-2.523 2.523,-2.523 1.684,0 2.528,0.844 2.528,2.523 v 15.512 H 0 c 5.711,0 10.55,2.016 14.519,6.043 4.028,4.027 6.043,8.867 6.043,14.52 0,5.711 -2.015,10.55 -6.043,14.519 C 10.55,-2.015 5.711,-0.004 0,-0.004 Z M 0,-36.074 H -51.586 V -5.047 H 0 c 4.265,0 7.902,-1.531 10.91,-4.597 3.066,-3.008 4.597,-6.645 4.597,-10.914 0,-4.266 -1.531,-7.934 -4.597,-11 C 7.902,-34.566 4.265,-36.066 0,-36.066 Z"
             style="fill:#888888;fill-opacity:1;fill-rule:nonzero;stroke:none"
             id="path398" />
        </g>
        <g
           id="g400"
           transform="translate(455.574,233.188)">
          <path
             d="m 0,0 c 0,-6.192 3.727,-11.422 11.18,-15.692 7.457,-4.207 16.594,-6.312 27.414,-6.312 10.762,0 19.539,1.171 26.336,3.519 8.176,2.824 12.262,6.973 12.262,12.442 0,5.714 -3.485,9.832 -10.461,12.355 -3.965,1.445 -11.692,2.945 -23.176,4.512 l -8.926,1.261 c -10.883,1.563 -18.098,2.946 -21.644,4.149 -5.293,1.801 -7.938,4.418 -7.938,7.844 0,3.246 3.129,5.894 9.379,7.937 6.254,2.043 14.309,3.067 24.168,3.067 9.078,0 16.926,-1.684 23.539,-5.051 6.672,-3.367 10.008,-7.364 10.008,-11.996 0,-1.684 0.844,-2.524 2.527,-2.524 1.684,0 2.524,0.84 2.524,2.524 0,6.195 -3.727,11.394 -11.18,15.601 -7.457,4.27 -16.594,6.406 -27.418,6.406 -10.762,0 -19.539,-1.175 -26.332,-3.519 C 4.086,33.699 -0.004,29.55 -0.004,24.078 c 0,-5.711 3.641,-9.86 10.914,-12.446 3.489,-1.199 11.18,-2.703 23.086,-4.508 L 38.235,6.496 42.832,5.863 C 53.836,4.359 61.141,2.976 64.746,1.714 c 4.93,-1.683 7.395,-4.269 7.395,-7.754 0,-3.25 -3.125,-5.894 -9.379,-7.937 -6.25,-2.043 -14.309,-3.066 -24.168,-3.066 -9.078,0 -16.953,1.683 -23.625,5.05 C 8.356,-8.626 5.047,-4.629 5.047,0 5.047,1.683 4.207,2.527 2.524,2.527 0.84,2.527 -0.004,1.683 -0.004,0 Z"
             style="fill:#888888;fill-opacity:1;fill-rule:nonzero;stroke:none"
             id="path402" />
        </g>
        <g
           id="g404"
           transform="translate(579.887,235.176)">
          <path
             d="m 0,0 c -1.684,0 -2.528,-0.84 -2.528,-2.524 0,-1.625 0.844,-2.437 2.528,-2.437 h 29.035 v -3.067 c -3.305,-3.605 -7.516,-6.429 -12.625,-8.476 -5.109,-1.984 -10.582,-2.977 -16.414,-2.977 -9.68,0 -17.945,2.528 -24.797,7.578 -6.856,5.11 -10.281,11.243 -10.281,18.395 0,7.215 3.425,13.348 10.281,18.398 6.852,5.11 15.117,7.664 24.797,7.664 5.953,0 11.515,-1.05 16.683,-3.156 5.231,-2.105 9.469,-5.019 12.715,-8.746 0.485,-0.601 1.114,-0.902 1.895,-0.902 1.683,0 2.527,0.84 2.527,2.523 0,0.602 -0.211,1.145 -0.633,1.625 -3.789,4.266 -8.597,7.606 -14.429,10.008 -5.832,2.465 -12.082,3.699 -18.758,3.699 -10.942,0 -20.321,-2.976 -28.137,-8.929 -7.992,-6.071 -11.992,-13.465 -11.992,-22.184 0,-8.719 4,-16.113 11.992,-22.184 7.758,-5.89 17.137,-8.839 28.137,-8.839 11.484,0 21.164,3.218 29.039,9.652 v -5.684 c 0,-1.621 0.844,-2.433 2.523,-2.433 1.625,0 2.438,0.812 2.438,2.433 v 20.559 z"
             style="fill:#888888;fill-opacity:1;fill-rule:nonzero;stroke:none"
             id="path406" />
        </g>
        <g
           id="g408"
           transform="translate(416.15812,414.008)"
           inkscape:export-filename="../18ab1557/d55psg-logomar.svg"
           inkscape:export-xdpi="125.32254"
           inkscape:export-ydpi="125.32254">
          <path
             d="m 0,0 c -6.168,0.004 -10.925,-0.016 -11.148,-0.043 -0.211,-0.027 -0.621,-0.11 -0.914,-0.184 -0.289,-0.074 -0.719,-0.211 -0.953,-0.301 -0.231,-0.093 -0.563,-0.242 -0.738,-0.328 -0.176,-0.09 -0.551,-0.316 -0.84,-0.507 -0.313,-0.211 -0.758,-0.586 -1.125,-0.954 -0.391,-0.39 -0.739,-0.808 -0.977,-1.16 -0.203,-0.304 -0.465,-0.765 -0.586,-1.027 -0.125,-0.258 -0.297,-0.695 -0.387,-0.973 -0.089,-0.273 -0.207,-0.719 -0.261,-0.984 l -0.098,-0.481 v -101.011 l 0.098,-0.481 c 0.054,-0.265 0.172,-0.711 0.261,-0.984 0.09,-0.278 0.262,-0.715 0.383,-0.973 0.125,-0.262 0.387,-0.722 0.59,-1.027 0.235,-0.352 0.586,-0.77 0.977,-1.16 0.39,-0.391 0.804,-0.742 1.16,-0.977 0.305,-0.203 0.765,-0.465 1.023,-0.586 0.262,-0.125 0.692,-0.293 0.961,-0.383 0.27,-0.086 0.715,-0.203 0.985,-0.261 l 0.496,-0.102 h 21.742 l 0.488,0.098 c 0.27,0.054 0.692,0.164 0.938,0.242 0.246,0.078 0.679,0.25 0.965,0.383 0.285,0.133 0.769,0.406 1.074,0.609 0.363,0.238 0.765,0.578 1.16,0.977 0.387,0.382 0.746,0.812 0.976,1.16 0.204,0.305 0.469,0.765 0.59,1.027 0.121,0.258 0.293,0.692 0.379,0.957 0.086,0.27 0.207,0.715 0.262,0.985 l 0.105,0.496 V -6.942 l -0.105,0.496 c -0.055,0.27 -0.176,0.715 -0.262,0.985 -0.086,0.265 -0.258,0.699 -0.379,0.957 -0.121,0.262 -0.386,0.723 -0.59,1.027 -0.23,0.348 -0.589,0.778 -0.976,1.16 -0.395,0.399 -0.797,0.739 -1.16,0.977 -0.305,0.203 -0.789,0.477 -1.074,0.609 -0.286,0.133 -0.684,0.297 -0.887,0.364 -0.207,0.066 -0.602,0.171 -0.883,0.238 l -0.512,0.117 z m -0.218,-7.906 h 9.91 v -99.082 h -19.817 v 99.082 z m -43.375,-23.801 c -6.168,0.004 -10.926,-0.012 -11.145,-0.039 -0.211,-0.028 -0.625,-0.11 -0.914,-0.184 -0.293,-0.074 -0.723,-0.211 -0.953,-0.305 -0.234,-0.089 -0.566,-0.238 -0.742,-0.328 -0.176,-0.086 -0.551,-0.316 -0.836,-0.504 -0.317,-0.211 -0.758,-0.586 -1.129,-0.957 -0.391,-0.386 -0.738,-0.804 -0.973,-1.16 -0.203,-0.304 -0.468,-0.765 -0.59,-1.023 -0.121,-0.258 -0.296,-0.699 -0.386,-0.973 -0.09,-0.277 -0.207,-0.719 -0.262,-0.984 l -0.105,-0.485 v -69.3 l 0.097,-0.481 c 0.055,-0.266 0.172,-0.711 0.262,-0.984 0.094,-0.278 0.266,-0.715 0.387,-0.973 0.121,-0.262 0.386,-0.723 0.589,-1.027 0.235,-0.352 0.586,-0.77 0.973,-1.16 0.391,-0.391 0.809,-0.743 1.164,-0.977 0.305,-0.199 0.766,-0.465 1.024,-0.586 0.257,-0.125 0.691,-0.293 0.961,-0.379 0.269,-0.09 0.711,-0.207 0.984,-0.265 l 0.496,-0.102 h 21.742 l 0.489,0.098 c 0.265,0.054 0.687,0.164 0.933,0.242 0.246,0.078 0.68,0.25 0.969,0.383 0.285,0.132 0.765,0.406 1.07,0.609 0.363,0.238 0.766,0.578 1.164,0.977 0.383,0.382 0.742,0.812 0.977,1.16 0.199,0.304 0.465,0.765 0.586,1.027 0.121,0.258 0.293,0.691 0.379,0.961 0.089,0.266 0.207,0.711 0.265,0.98 l 0.102,0.497 v 69.296 l -0.102,0.497 c -0.058,0.273 -0.176,0.714 -0.265,0.984 -0.086,0.269 -0.258,0.703 -0.379,0.961 -0.121,0.258 -0.387,0.719 -0.586,1.023 -0.235,0.352 -0.594,0.778 -0.977,1.164 -0.398,0.399 -0.801,0.739 -1.164,0.977 -0.305,0.203 -0.785,0.477 -1.07,0.609 -0.289,0.129 -0.688,0.293 -0.891,0.36 -0.203,0.066 -0.601,0.175 -0.879,0.242 l -0.511,0.117 z m -0.227,-7.906 h 9.906 v -67.372 h -19.82 v 67.364 z m -43.383,-19.844 c -6.164,0.008 -10.922,-0.012 -11.144,-0.039 -0.211,-0.028 -0.621,-0.11 -0.914,-0.184 -0.293,-0.074 -0.719,-0.211 -0.953,-0.305 -0.231,-0.089 -0.567,-0.238 -0.739,-0.328 -0.175,-0.086 -0.554,-0.316 -0.84,-0.504 -0.312,-0.211 -0.757,-0.586 -1.125,-0.957 -0.39,-0.386 -0.742,-0.804 -0.976,-1.16 -0.203,-0.304 -0.469,-0.765 -0.59,-1.023 -0.121,-0.258 -0.293,-0.699 -0.383,-0.973 -0.09,-0.277 -0.207,-0.719 -0.261,-0.984 l -0.098,-0.496 v -41.559 l 0.098,-0.48 c 0.054,-0.266 0.171,-0.711 0.261,-0.985 0.09,-0.277 0.262,-0.715 0.383,-0.972 0.125,-0.262 0.387,-0.723 0.59,-1.028 0.234,-0.351 0.586,-0.769 0.976,-1.16 0.391,-0.391 0.805,-0.742 1.161,-0.976 0.304,-0.204 0.765,-0.465 1.023,-0.59 0.262,-0.121 0.691,-0.289 0.961,-0.379 0.27,-0.086 0.715,-0.203 0.984,-0.262 l 0.496,-0.102 h 21.743 l 0.488,0.098 c 0.269,0.055 0.691,0.164 0.937,0.242 0.247,0.078 0.68,0.25 0.965,0.383 0.285,0.133 0.77,0.406 1.074,0.61 0.364,0.238 0.766,0.578 1.161,0.976 0.386,0.383 0.746,0.813 0.976,1.16 0.203,0.305 0.469,0.766 0.59,1.028 0.121,0.257 0.293,0.687 0.379,0.957 0.086,0.269 0.207,0.714 0.262,0.984 l 0.105,0.508 v 41.558 l -0.105,0.493 c -0.059,0.273 -0.176,0.718 -0.262,0.984 -0.086,0.269 -0.258,0.703 -0.379,0.961 -0.121,0.262 -0.387,0.723 -0.59,1.023 -0.234,0.352 -0.59,0.778 -0.976,1.164 -0.395,0.399 -0.801,0.739 -1.161,0.977 -0.304,0.203 -0.789,0.477 -1.074,0.609 -0.285,0.133 -0.687,0.293 -0.89,0.36 -0.203,0.07 -0.598,0.175 -0.879,0.242 l -0.508,0.117 z m -0.218,-7.903 h 9.91 v -39.632 h -19.817 v 39.632 z"
             style="fill:#908f8f;fill-opacity:1;fill-rule:nonzero;stroke:none"
             id="path410" />
        </g>
      </g>
    </g>
  </g>
</svg>
