<?xml version="1.0" encoding="UTF-8" standalone="no"?>
<!-- Created with Inkscape (http://www.inkscape.org/) -->

<svg
   version="1.1"
   id="svg148"
   width="512"
   height="512"
   viewBox="0 0 512 512"
   sodipodi:docname="d55psg-logomark-bg.svg"
   inkscape:version="1.2.2 (732a01da63, 2022-12-09, custom)"
   xmlns:inkscape="http://www.inkscape.org/namespaces/inkscape"
   xmlns:sodipodi="http://sodipodi.sourceforge.net/DTD/sodipodi-0.dtd"
   xmlns="http://www.w3.org/2000/svg"
   xmlns:svg="http://www.w3.org/2000/svg">
  <defs
     id="defs152">
    <clipPath
       clipPathUnits="userSpaceOnUse"
       id="clipPath166">
      <path
         d="M 0,576 H 768 V 0 H 0 Z"
         id="path164" />
    </clipPath>
    <clipPath
       clipPathUnits="userSpaceOnUse"
       id="clipPath4695">
      <path
         d="m 724.481,229.42 c -14.4,0 -26.074,-11.674 -26.074,-26.075 v 0 -54.088 c 0,-14.399 11.674,-26.076 26.074,-26.076 v 0 h 54.089 c 14.399,0 26.073,11.677 26.073,26.076 v 0 54.088 c 0,14.401 -11.674,26.075 -26.073,26.075 v 0 z"
         id="path4693" />
    </clipPath>
    <clipPath
       clipPathUnits="userSpaceOnUse"
       id="clipPath4805">
      <path
         d="M 0,1080 H 1413.02 V 0 H 0 Z"
         id="path4803" />
    </clipPath>
  </defs>
  <sodipodi:namedview
     id="namedview150"
     pagecolor="#505050"
     bordercolor="#ffffff"
     borderopacity="1"
     inkscape:showpageshadow="0"
     inkscape:pageopacity="0"
     inkscape:pagecheckerboard="1"
     inkscape:deskcolor="#505050"
     showgrid="false"
     inkscape:zoom="0.41708252"
     inkscape:cx="544.25681"
     inkscape:cy="286.51405"
     inkscape:window-width="1366"
     inkscape:window-height="707"
     inkscape:window-x="0"
     inkscape:window-y="30"
     inkscape:window-maximized="1"
     inkscape:current-layer="g156" />
  <g
     id="g156"
     inkscape:groupmode="layer"
     inkscape:label="d55psg"
     transform="matrix(1.3333333,0,0,-1.3333333,-256,640)">
    <g
       id="g6601"
       transform="matrix(5.1230469,0,0,-5.1229023,-276.59961,1092.0678)"
       inkscape:label="logomark-bg">
      <g
         id="g4689"
         transform="matrix(0.70555554,0,0,-0.70555554,-401.296,281.34531)"
         inkscape:label="bg">
        <g
           id="g4691"
           clip-path="url(#clipPath4695)">
          <g
             id="g4697"
             transform="translate(664.998,217.5986)">
            <path
               d="M 0,0 127.824,45.229 173.055,-82.595 45.23,-127.825 Z"
               style="fill:#888888;fill-opacity:1;fill-rule:nonzero;stroke:none"
               id="path4699" />
          </g>
        </g>
      </g>
      <g
         id="g4799"
         transform="matrix(0.70555554,0,0,-0.70555554,-401.296,281.34531)"
         inkscape:label="logomark">
        <g
           id="g4801"
           clip-path="url(#clipPath4805)">
          <g
             id="g4807"
             transform="translate(779.585,218.1279)">
            <path
               d="m 0,0 c -4.287,0.004 -7.591,-0.01 -7.745,-0.03 -0.148,-0.018 -0.431,-0.075 -0.636,-0.127 -0.2,-0.052 -0.499,-0.146 -0.661,-0.208 -0.159,-0.067 -0.393,-0.168 -0.514,-0.227 -0.123,-0.065 -0.382,-0.221 -0.582,-0.354 -0.218,-0.148 -0.527,-0.408 -0.782,-0.663 -0.272,-0.271 -0.513,-0.561 -0.679,-0.805 -0.14,-0.211 -0.321,-0.531 -0.408,-0.714 -0.084,-0.178 -0.205,-0.482 -0.267,-0.677 -0.064,-0.187 -0.145,-0.497 -0.182,-0.683 l -0.067,-0.334 V -74.99 l 0.067,-0.334 c 0.037,-0.184 0.118,-0.495 0.182,-0.686 0.062,-0.191 0.183,-0.494 0.266,-0.673 0.088,-0.182 0.269,-0.503 0.409,-0.714 0.164,-0.245 0.407,-0.534 0.679,-0.806 0.27,-0.272 0.56,-0.516 0.806,-0.679 0.213,-0.139 0.531,-0.322 0.711,-0.407 0.181,-0.087 0.48,-0.203 0.668,-0.267 0.186,-0.056 0.495,-0.139 0.683,-0.181 l 0.345,-0.072 H 7.396 l 0.339,0.069 c 0.187,0.039 0.481,0.113 0.652,0.17 0.17,0.054 0.471,0.174 0.671,0.265 0.196,0.092 0.534,0.284 0.746,0.423 0.252,0.165 0.531,0.4 0.806,0.679 0.267,0.266 0.518,0.563 0.678,0.806 0.142,0.211 0.324,0.532 0.409,0.714 0.084,0.179 0.202,0.48 0.263,0.663 0.06,0.189 0.143,0.497 0.182,0.685 l 0.075,0.345 v 70.168 l -0.075,0.346 c -0.039,0.187 -0.122,0.496 -0.182,0.683 -0.061,0.185 -0.179,0.487 -0.263,0.665 -0.085,0.183 -0.267,0.503 -0.409,0.714 -0.16,0.24 -0.411,0.539 -0.678,0.805 -0.275,0.277 -0.554,0.513 -0.806,0.677 -0.212,0.144 -0.55,0.333 -0.746,0.424 -0.2,0.094 -0.475,0.207 -0.618,0.253 -0.143,0.046 -0.416,0.12 -0.612,0.166 l -0.356,0.08 z M -0.153,-5.492 H 6.733 V -74.319 H -7.033 v 68.827 z m -30.13,-16.531 c -4.286,0.002 -7.591,-0.011 -7.741,-0.03 -0.148,-0.018 -0.436,-0.076 -0.637,-0.128 -0.203,-0.05 -0.503,-0.146 -0.662,-0.21 -0.161,-0.063 -0.393,-0.164 -0.516,-0.228 -0.121,-0.06 -0.382,-0.221 -0.58,-0.35 -0.221,-0.146 -0.526,-0.408 -0.784,-0.666 -0.271,-0.268 -0.513,-0.558 -0.678,-0.804 -0.139,-0.212 -0.321,-0.533 -0.409,-0.712 -0.084,-0.179 -0.204,-0.486 -0.268,-0.673 -0.061,-0.196 -0.143,-0.502 -0.18,-0.688 l -0.074,-0.336 v -48.141 l 0.069,-0.333 c 0.037,-0.184 0.118,-0.493 0.18,-0.684 0.066,-0.193 0.185,-0.496 0.269,-0.675 0.084,-0.181 0.269,-0.504 0.41,-0.714 0.162,-0.245 0.406,-0.534 0.676,-0.806 0.27,-0.272 0.562,-0.516 0.809,-0.678 0.212,-0.139 0.531,-0.323 0.711,-0.408 0.176,-0.086 0.48,-0.202 0.667,-0.263 0.187,-0.06 0.494,-0.142 0.684,-0.182 l 0.344,-0.073 h 15.103 l 0.34,0.068 c 0.184,0.04 0.478,0.116 0.65,0.169 0.169,0.054 0.473,0.175 0.671,0.266 0.198,0.091 0.531,0.282 0.744,0.423 0.252,0.165 0.533,0.402 0.808,0.678 0.266,0.265 0.517,0.565 0.678,0.806 0.14,0.21 0.324,0.533 0.408,0.714 0.084,0.179 0.203,0.48 0.262,0.667 0.062,0.187 0.144,0.493 0.185,0.681 l 0.071,0.344 v 48.139 l -0.071,0.345 c -0.041,0.189 -0.123,0.496 -0.185,0.683 -0.059,0.187 -0.178,0.49 -0.262,0.669 -0.084,0.178 -0.268,0.5 -0.408,0.711 -0.161,0.243 -0.412,0.539 -0.678,0.807 -0.275,0.277 -0.556,0.513 -0.808,0.677 -0.213,0.144 -0.546,0.333 -0.744,0.425 -0.198,0.09 -0.478,0.204 -0.618,0.25 -0.142,0.048 -0.42,0.122 -0.611,0.169 l -0.354,0.08 z m -0.159,-5.496 h 6.881 v -46.798 h -13.767 v 46.793 z M -60.58,-41.303 c -4.279,0.006 -7.586,-0.008 -7.74,-0.027 -0.146,-0.018 -0.43,-0.075 -0.634,-0.126 -0.204,-0.052 -0.5,-0.149 -0.661,-0.212 -0.161,-0.062 -0.395,-0.167 -0.515,-0.228 -0.119,-0.061 -0.384,-0.22 -0.584,-0.35 -0.215,-0.148 -0.525,-0.408 -0.783,-0.666 -0.269,-0.268 -0.514,-0.56 -0.676,-0.805 -0.14,-0.213 -0.326,-0.532 -0.409,-0.712 -0.085,-0.177 -0.206,-0.484 -0.267,-0.675 -0.064,-0.193 -0.144,-0.5 -0.18,-0.684 l -0.07,-0.344 v -28.87 l 0.07,-0.333 c 0.036,-0.186 0.116,-0.492 0.18,-0.685 0.061,-0.191 0.182,-0.496 0.267,-0.677 0.087,-0.178 0.269,-0.5 0.409,-0.712 0.162,-0.243 0.407,-0.533 0.676,-0.805 0.274,-0.271 0.56,-0.516 0.808,-0.679 0.211,-0.141 0.534,-0.323 0.712,-0.409 0.181,-0.085 0.48,-0.201 0.667,-0.264 0.188,-0.061 0.497,-0.141 0.684,-0.181 l 0.345,-0.071 h 15.103 l 0.338,0.068 c 0.189,0.037 0.48,0.114 0.653,0.168 0.172,0.055 0.471,0.174 0.668,0.268 0.2,0.089 0.535,0.28 0.747,0.421 0.252,0.166 0.534,0.403 0.807,0.679 0.269,0.267 0.519,0.564 0.68,0.805 0.138,0.212 0.322,0.534 0.408,0.712 0.083,0.181 0.203,0.48 0.263,0.668 0.059,0.189 0.144,0.498 0.183,0.683 l 0.073,0.354 v 28.867 l -0.073,0.342 c -0.041,0.19 -0.124,0.501 -0.183,0.684 -0.06,0.188 -0.18,0.489 -0.263,0.668 -0.086,0.182 -0.27,0.501 -0.408,0.712 -0.165,0.243 -0.411,0.539 -0.68,0.807 -0.273,0.278 -0.556,0.514 -0.807,0.678 -0.212,0.141 -0.547,0.332 -0.747,0.425 -0.197,0.091 -0.477,0.202 -0.617,0.248 -0.14,0.052 -0.416,0.123 -0.609,0.17 l -0.356,0.08 z m -0.149,-5.489 h 6.884 v -27.53 h -13.767 v 27.53 z"
               style="fill:#ffffff;fill-opacity:1;fill-rule:nonzero;stroke:none"
               id="path4809" />
          </g>
        </g>
      </g>
    </g>
  </g>
</svg>
